<svg xmlns:xlink="http://www.w3.org/1999/xlink" xmlns="http://www.w3.org/2000/svg" width="200" height="20.39914285818809" viewBox="0 0 200 20.39914285818809" class="css-1j8o68f"><defs id="SvgjsDefs2851"></defs><g id="SvgjsG2852" featurekey="nameFeature-0" transform="matrix(0.6659748397762253,0,0,0.6659748397762253,-1.079944265661526,-6.877521946805747)" fill="#111111"><path d="M4.5703 27.266 l-1.7969 0 l3.75 -16.367 l9.8047 0 l-3.7891 16.367 l1.8164 0 l-1.2891 5.332 l10.84 0 l-1.6797 7.3828 l-20.605 0 z M59.584773437500004 25.683999999999997 c-0.15625 0.625 -0.33203 1.25 -0.56641 1.8945 l2.1289 0 c-2.4805 7.7539 -8.7891 13.379 -17.441 13.379 c-8.9258 0 -12.402 -5.625 -11.27 -13.379 l-2.0703 0 c0.078125 -0.64453 0.17578 -1.2695 0.3125 -1.8945 c2.0703 -8.9258 8.5352 -15.313 17.93 -15.313 c9.1992 0 12.988 6.4453 10.977 15.313 z M51.0107734375 27.578 l-2.1094 0 c0.19531 -0.64453 0.39063 -1.2695 0.52734 -1.9336 c2.4805 -10.723 -6.1719 -10.41 -8.5938 0.039063 c-0.13672 0.68359 -0.23438 1.3086 -0.33203 1.8945 l2.1094 0 c-1.0156 8.1641 5.6445 7.9883 8.3984 0 z M71.279334375 27.266 l-2.2461 0 l9.1797 -16.387 l9.7461 0 l1.582 16.387 l2.1875 0 l1.2305 12.715 l-10.059 0 l-0.41016 -5.4883 l-5.5664 0 c-0.97656 1.8164 -1.8945 3.6523 -2.8711 5.4883 l-9.8828 0 z M82.236234375 27.676000000000002 l0 -0.41016 l-2.1289 0 l0.039063 -6.4844 l-2.6172 6.4844 l2.168 0 l-0.15625 0.41016 l2.6953 0 z M128.3449453125 27.266 l-2.9102 12.715 l-9.082 0 l-3.8672 -12.715 l-0.44922 0 l-2.9492 12.715 l-9.1992 0 l2.9492 -12.715 l-1.7773 0 l3.7695 -16.367 l10.723 0 l3.1641 10.273 l2.4023 -10.273 l9.2383 0 l-3.7891 16.367 l1.7773 0 z M161.13296875 26.719 c1.1328 4.1016 -2.2656 8.9453 -5.4102 11.074 c-6.1719 4.043 -14.316 3.3984 -20.625 0.15625 l1.8359 -8.125 l3.0273 0 c0.39063 4.1992 9.7852 5.9375 10.742 1.7969 c0.46875 -2.0508 -6.8945 -2.6172 -9.3555 -4.5508 c-0.13672 -0.11719 -0.29297 -0.23438 -0.41016 -0.35156 l-1.7969 0 c-1.9531 -1.8359 -2.1289 -4.2773 -1.5625 -6.8164 c2.3828 -10.41 16.523 -11.445 24.688 -7.3242 l-1.8164 7.9102 l-3.0469 0 c0.19531 -2.9688 -8.7891 -5 -9.6289 -1.4258 c-0.56641 2.7734 8.5352 1.9531 11.055 6.3477 c0.21484 0.39063 0.39063 0.85938 0.50781 1.3086 l1.7969 0 z M195.2298046875 27.344 l-2.9688 12.734 l-9.7852 0 l2.7734 -11.953 l-5.6641 0 l-2.793 11.953 l-9.8438 0 l2.9492 -12.734 l-1.9727 0 l3.7695 -16.484 l9.8438 0 l-2.2461 9.9023 l5.6445 0 l2.2852 -9.9023 l9.8047 0 l-3.8086 16.484 l2.0117 0 z M206.728553125 27.266 l-2.2461 0 l9.1797 -16.387 l9.7461 0 l1.582 16.387 l2.1875 0 l1.2305 12.715 l-10.059 0 l-0.41016 -5.4883 l-5.5664 0 c-0.97656 1.8164 -1.8945 3.6523 -2.8711 5.4883 l-9.8828 0 z M217.685453125 27.676000000000002 l0 -0.41016 l-2.1289 0 l0.039063 -6.4844 l-2.6172 6.4844 l2.168 0 l-0.15625 0.41016 l2.6953 0 z M238.0908640625 26.719 l-1.7773 0 l3.6328 -15.957 c3.3984 0 9.5313 -0.33203 14.375 0.3125 c4.2773 0.625 8.418 2.207 7.6953 7.3438 c-0.41016 3.1055 -2.793 6.2891 -5.3711 8.3008 l1.7578 0 c-0.46875 0.35156 -0.9375 0.72266 -1.4453 0.97656 l6.6797 12.383 l-11.719 0 l-4.8828 -9.5508 l-2.168 9.5508 l-9.8438 0 z M248.1691640625 17.988 l-1.1914 5.0391 c4.707 0 7.3438 -5.0391 1.1914 -5.0391 z M291.8161875 27.344 l5.6641 12.734 l-11.582 0 l-3.6719 -8.8086 l-2.0313 8.8086 l-9.8047 0 l2.9297 -12.734 l-1.9727 0 l3.7695 -16.484 l9.8242 0 l-1.8945 8.2031 c2.5586 -2.7344 5.0586 -5.5078 7.5977 -8.2031 l11.289 0 l-13.32 13.672 l1.1914 2.8125 l2.0117 0 z" fill="#111111"></path></g></svg>