<svg xmlns:xlink="http://www.w3.org/1999/xlink" xmlns="http://www.w3.org/2000/svg" width="200" height="110.46918193950357" viewBox="0 0 200 110.46918193950357" class="css-1j8o68f"><defs id="SvgjsDefs1107"></defs><g id="SvgjsG1108" featurekey="nameFeature-0" transform="matrix(3.6483624580407836,0,0,3.6483624580407836,-5.916181633738334,-37.67663787945612)" fill="#FFFFFF"><path d="M4.5703 27.266 l-1.7969 0 l3.75 -16.367 l9.8047 0 l-3.7891 16.367 l1.8164 0 l-1.2891 5.332 l10.84 0 l-1.6797 7.3828 l-20.605 0 z M55.3077734375 26.719 c1.1328 4.1016 -2.2656 8.9453 -5.4102 11.074 c-6.1719 4.043 -14.316 3.3984 -20.625 0.15625 l1.8359 -8.125 l3.0273 0 c0.39063 4.1992 9.7852 5.9375 10.742 1.7969 c0.46875 -2.0508 -6.8945 -2.6172 -9.3555 -4.5508 c-0.13672 -0.11719 -0.29297 -0.23438 -0.41016 -0.35156 l-1.7969 0 c-1.9531 -1.8359 -2.1289 -4.2773 -1.5625 -6.8164 c2.3828 -10.41 16.523 -11.445 24.688 -7.3242 l-1.8164 7.9102 l-3.0469 0 c0.19531 -2.9688 -8.7891 -5 -9.6289 -1.4258 c-0.56641 2.7734 8.5352 1.9531 11.055 6.3477 c0.21484 0.39063 0.39063 0.85938 0.50781 1.3086 l1.7969 0 z" fill="#FFFFFF"></path></g></svg>